# xmcd
#
# Track frame offsets:
#	150
#	15722
#	37111
#	52729
#	74630
#	88135
#	109350
#	127942
#	148114
#	168015
#	192217
#	205471
#	226009
#	246343
#	265050
#	282300
#	313846
#	329500
#	339525
#
# Disc length: 4665 seconds
#
# Revision: 2
# Processed by: cddbd v1.5.2PL0 Copyright (c) Steve Scherf et al.
# Submitted via: audiograbber 1.83.01
#
DISCID=1f123713
DTITLE=Theuns Jordaan - Grooste Treffers 2000-2007
DYEAR=2007
DGENRE=Folk
TTITLE0=Soos bloed
TTITLE1=Jou asem
TTITLE2=Hakieshart
TTITLE3=Namibsroos
TTITLE4=Hanne
TTITLE5=Beautiful in Beaufort-Wes
TTITLE6=Skipskop
TTITLE7=Hillbrow
TTITLE8=Pakpoort
TTITLE9=Sonvanger
TTITLE10=Vreemde stad
TTITLE11=Buitekant
TTITLE12=Visserman
TTITLE13=Tjailatyd
TTITLE14=Bietjie van my
TTITLE15=Laslappie
TTITLE16=Bring jou hart
TTITLE17=Moenie
TTITLE18=Groet sonder woorde
EXTD=
EXTT0=
EXTT1=
EXTT2=
EXTT3=
EXTT4=
EXTT5=
EXTT6=
EXTT7=
EXTT8=
EXTT9=
EXTT10=
EXTT11=
EXTT12=
EXTT13=
EXTT14=
EXTT15=
EXTT16=
EXTT17=
EXTT18=
PLAYORDER=
